<?xml version="1.0" encoding="UTF-8" standalone="no"?>
<svg
   xmlns:dc="http://purl.org/dc/elements/1.1/"
   xmlns:cc="http://creativecommons.org/ns#"
   xmlns:rdf="http://www.w3.org/1999/02/22-rdf-syntax-ns#"
   xmlns:svg="http://www.w3.org/2000/svg"
   xmlns="http://www.w3.org/2000/svg"
   xmlns:sodipodi="http://sodipodi.sourceforge.net/DTD/sodipodi-0.dtd"
   xmlns:inkscape="http://www.inkscape.org/namespaces/inkscape"
   height="1000"
   width="999"
   id="svg2"
   version="1.1"
   inkscape:version="0.48.2 r9819"
   sodipodi:docname="acrobat.svg">
  <metadata
     id="metadata10">
    <rdf:RDF>
      <cc:Work
         rdf:about="">
        <dc:format>image/svg+xml</dc:format>
        <dc:type
           rdf:resource="http://purl.org/dc/dcmitype/StillImage" />
      </cc:Work>
    </rdf:RDF>
  </metadata>
  <defs
     id="defs8" />
  <sodipodi:namedview
     pagecolor="#ffffff"
     bordercolor="#666666"
     borderopacity="1"
     objecttolerance="10"
     gridtolerance="10"
     guidetolerance="10"
     inkscape:pageopacity="0"
     inkscape:pageshadow="2"
     inkscape:window-width="836"
     inkscape:window-height="793"
     id="namedview6"
     showgrid="false"
     inkscape:zoom="0.236"
     inkscape:cx="499.5"
     inkscape:cy="500"
     inkscape:window-x="0"
     inkscape:window-y="0"
     inkscape:window-maximized="0"
     inkscape:current-layer="svg2" />
  <path
     d="M0 958q0-51 61-106.5t123-88.5l15 22q-44 32-90.5 82.5t-58.5 89.5q87-27 265-379 65-131 103-261-33-107-33-202 0-115 47-115 23 0 34 2t20.5 13 9.5 34q0 15-3 28l-27-1q-2-26-17-41-12 20-12 69 0 38 9 94 3-18 8.5-53.5t9.5-53.5l26 3q-2 152-14 218 36 107 86.5 174t142.5 119q68-7 116-7 178 0 178 70 0 11-5 24l-3-1q-5 42-67 42-104 0-240-72-220 22-389 82-147 257-235 257-7 0-14-2t-12.5-4.5-13.5-7-12-6.5q-8-8-8-22zm318-255q134-54 298-85-103-73-164-209-36 121-134 294zm486-50q90 35 142 35 15 0 22-3 0-32-145-32l-19 0z"
     id="path4"
     style="fill:#8f0000;fill-opacity:1" />
</svg>
