<?xml version="1.0" encoding="UTF-8" standalone="no"?>
<!-- Generator: Adobe Illustrator 16.0.4, SVG Export Plug-In . SVG Version: 6.00 Build 0)  -->

<svg
   xmlns:dc="http://purl.org/dc/elements/1.1/"
   xmlns:cc="http://creativecommons.org/ns#"
   xmlns:rdf="http://www.w3.org/1999/02/22-rdf-syntax-ns#"
   xmlns:svg="http://www.w3.org/2000/svg"
   xmlns="http://www.w3.org/2000/svg"
   xmlns:sodipodi="http://sodipodi.sourceforge.net/DTD/sodipodi-0.dtd"
   xmlns:inkscape="http://www.inkscape.org/namespaces/inkscape"
   version="1.1"
   id="Layer_1"
   x="0px"
   y="0px"
   width="56.693px"
   height="56.693px"
   viewBox="0 0 56.693 56.693"
   enable-background="new 0 0 56.693 56.693"
   xml:space="preserve"
   inkscape:version="0.48.2 r9819"
   sodipodi:docname="03-twitter.svg"
   inkscape:export-filename="/Users/lapsusone/Dropbox/Mon Site/Croisillon/public_html/Images/Icons/Inactive_menu/PNG/twitter_inactive_menu.png"
   inkscape:export-xdpi="180"
   inkscape:export-ydpi="180"><metadata
   id="metadata9"><rdf:RDF><cc:Work
       rdf:about=""><dc:format>image/svg+xml</dc:format><dc:type
         rdf:resource="http://purl.org/dc/dcmitype/StillImage" /><dc:title></dc:title></cc:Work></rdf:RDF></metadata><defs
   id="defs7" /><sodipodi:namedview
   pagecolor="#ffffff"
   bordercolor="#666666"
   borderopacity="1"
   objecttolerance="10"
   gridtolerance="10"
   guidetolerance="10"
   inkscape:pageopacity="0"
   inkscape:pageshadow="2"
   inkscape:window-width="901"
   inkscape:window-height="694"
   id="namedview5"
   showgrid="false"
   inkscape:zoom="11.889893"
   inkscape:cx="-1.5676862"
   inkscape:cy="26.35"
   inkscape:window-x="41"
   inkscape:window-y="0"
   inkscape:window-maximized="0"
   inkscape:current-layer="Layer_1" />
<path
   d="m 47.873045,18.621478 c -1.628516,0.723885 -3.381126,1.21217 -5.220063,1.430684 1.877604,-1.124044 3.317281,-2.904531 3.996203,-5.028526 -1.756207,1.042215 -3.700354,1.798472 -5.771294,2.206725 -1.657291,-1.766099 -4.019583,-2.87036 -6.633661,-2.87036 -5.018634,0 -9.087675,4.069041 -9.087675,9.088574 0,0.711295 0.08003,1.404606 0.235599,2.07094 -7.553579,-0.379478 -14.251086,-3.997103 -18.7337758,-9.495929 -0.782335,1.34166 -1.2301543,2.902733 -1.2301543,4.569916 0,3.15272 1.6042364,5.934955 4.0429634,7.56437 -1.4891342,-0.04766 -2.8910426,-0.456812 -4.1167007,-1.137533 -8.993e-4,0.03777 -8.993e-4,0.07644 -8.993e-4,0.115102 0,4.402658 3.132937,8.075136 7.2910027,8.911425 -0.762552,0.206825 -1.565569,0.31833 -2.394665,0.31833 -0.5863013,0 -1.1555174,-0.05665 -1.7103458,-0.163661 1.1573163,3.610431 4.5132638,6.238897 8.4896838,6.311735 -3.110456,2.437828 -7.028426,3.890992 -11.2872059,3.890992 -0.732877,0 -1.4567617,-0.04316 -2.1680571,-0.127691 4.0231802,2.579907 8.79992,4.083429 13.931858,4.083429 16.717689,0 25.85842,-13.848229 25.85842,-25.85842 0,-0.393865 -0.0081,-0.786831 -0.02518,-1.177099 1.775091,-1.278714 3.316381,-2.880252 4.533946,-4.703003 z"
   id="path3"
   style="fill:#55acee;fill-opacity:1"
   inkscape:export-filename="/Users/lapsusone/Dropbox/Mon Site/Croisillon/public_html/Images/Icons/Hover/PNG/twitter_active.png"
   inkscape:export-xdpi="180"
   inkscape:export-ydpi="180"
   inkscape:connector-curvature="0" />
</svg>