<?xml version="1.0" encoding="UTF-8" standalone="no"?>
<!-- Generator: Adobe Illustrator 16.0.4, SVG Export Plug-In . SVG Version: 6.00 Build 0)  -->

<svg
   xmlns:dc="http://purl.org/dc/elements/1.1/"
   xmlns:cc="http://creativecommons.org/ns#"
   xmlns:rdf="http://www.w3.org/1999/02/22-rdf-syntax-ns#"
   xmlns:svg="http://www.w3.org/2000/svg"
   xmlns="http://www.w3.org/2000/svg"
   xmlns:sodipodi="http://sodipodi.sourceforge.net/DTD/sodipodi-0.dtd"
   xmlns:inkscape="http://www.inkscape.org/namespaces/inkscape"
   version="1.1"
   id="Layer_1"
   x="0px"
   y="0px"
   width="26.605877"
   height="40"
   viewBox="0 0 26.605877 39.999999"
   enable-background="new 0 0 56.693 56.693"
   xml:space="preserve"
   inkscape:version="0.48.2 r9819"
   sodipodi:docname="15-tumblr.svg"
   inkscape:export-filename="/Users/lapsusone/Dropbox/Mon Site/Croisillon/public_html/Images/Icons/Inactive_menu/PNG/tumblr_inactive_menu.png"
   inkscape:export-xdpi="180"
   inkscape:export-ydpi="180"><metadata
   id="metadata9"><rdf:RDF><cc:Work
       rdf:about=""><dc:format>image/svg+xml</dc:format><dc:type
         rdf:resource="http://purl.org/dc/dcmitype/StillImage" /><dc:title></dc:title></cc:Work></rdf:RDF></metadata><defs
   id="defs7" /><sodipodi:namedview
   pagecolor="#ffffff"
   bordercolor="#666666"
   borderopacity="1"
   objecttolerance="10"
   gridtolerance="10"
   guidetolerance="10"
   inkscape:pageopacity="0"
   inkscape:pageshadow="2"
   inkscape:window-width="1014"
   inkscape:window-height="775"
   id="namedview5"
   showgrid="false"
   inkscape:zoom="15.472222"
   inkscape:cx="13.302938"
   inkscape:cy="20"
   inkscape:window-x="61"
   inkscape:window-y="3"
   inkscape:window-maximized="0"
   inkscape:current-layer="Layer_1"
   fit-margin-top="2"
   fit-margin-right="2"
   fit-margin-bottom="2"
   fit-margin-left="2" />
<path
   d="m 14.869682,2 v 8.324515 h 8.323052 v 6.427892 h -8.323052 v 9.230038 c 0,2.08826 -0.0256,3.292941 0.194563,3.884676 0.220163,0.588809 0.771668,1.200292 1.371449,1.552846 0.798732,0.478362 1.705717,0.716811 2.731196,0.716811 1.822748,0 3.635987,-0.591734 5.438986,-1.775935 v 5.675972 c -1.536024,0.724125 -2.930148,1.23467 -4.177253,1.52432 -1.248567,0.28965 -2.595879,0.438864 -4.045593,0.438864 -1.645739,0 -2.617091,-0.20846 -3.880287,-0.621724 C 11.237352,36.959892 10.158478,36.365231 9.266853,35.600877 8.37084,34.830671 7.754236,34.01219 7.408997,33.146897 7.063026,32.279409 6.890406,31.022796 6.890406,29.377056 V 16.752407 H 2 V 11.653541 C 3.413873,11.194928 5.053029,10.536632 6.05949,9.679385 7.07034,8.819212 7.879312,7.790808 8.48787,6.587589 9.100817,5.387297 9.520663,3.856393 9.751067,2.000731 h 5.118615 z"
   id="path3"
   style="fill:#686767;fill-opacity:1"
   inkscape:connector-curvature="0"
   inkscape:export-filename="/Users/lapsusone/Dropbox/Mon Site/Croisillon/public_html/Images/Icons/Inactive_menu/PNG/tumblr_inactive_menu.png"
   inkscape:export-xdpi="90"
   inkscape:export-ydpi="90" />
</svg>