<?xml version="1.0" encoding="UTF-8" standalone="no"?>
<!-- Created with Inkscape (http://www.inkscape.org/) -->

<svg
   xmlns:dc="http://purl.org/dc/elements/1.1/"
   xmlns:cc="http://creativecommons.org/ns#"
   xmlns:rdf="http://www.w3.org/1999/02/22-rdf-syntax-ns#"
   xmlns:svg="http://www.w3.org/2000/svg"
   xmlns="http://www.w3.org/2000/svg"
   xmlns:sodipodi="http://sodipodi.sourceforge.net/DTD/sodipodi-0.dtd"
   xmlns:inkscape="http://www.inkscape.org/namespaces/inkscape"
   id="svg2"
   version="1.1"
   inkscape:version="0.48.2 r9819"
   width="103.63177"
   height="40"
   xml:space="preserve"
   sodipodi:docname="TEDx_logo_RGB.svg"
   inkscape:export-filename="/Users/lapsusone/Dropbox/Mon Site/Croisillon/public_html/Images/Icons/Inactive_menu/PNG/ted_inactive_menu.png"
   inkscape:export-xdpi="180"
   inkscape:export-ydpi="180"><metadata
     id="metadata8"><rdf:RDF><cc:Work
         rdf:about=""><dc:format>image/svg+xml</dc:format><dc:type
           rdf:resource="http://purl.org/dc/dcmitype/StillImage" /><dc:title></dc:title></cc:Work></rdf:RDF></metadata><defs
     id="defs6"><clipPath
       clipPathUnits="userSpaceOnUse"
       id="clipPath20"><path
         d="M 0,0 297,0 297,110 0,110 0,0 z"
         id="path22"
         inkscape:connector-curvature="0" /></clipPath></defs><sodipodi:namedview
     pagecolor="#ffffff"
     bordercolor="#666666"
     borderopacity="1"
     objecttolerance="10"
     gridtolerance="10"
     guidetolerance="10"
     inkscape:pageopacity="0"
     inkscape:pageshadow="2"
     inkscape:window-width="990"
     inkscape:window-height="756"
     id="namedview4"
     showgrid="false"
     inkscape:zoom="8.6217474"
     inkscape:cx="51.815888"
     inkscape:cy="20"
     inkscape:window-x="86"
     inkscape:window-y="0"
     inkscape:window-maximized="0"
     inkscape:current-layer="g10"
     fit-margin-top="2"
     fit-margin-left="2"
     fit-margin-right="2"
     fit-margin-bottom="2" /><g
     id="g10"
     inkscape:groupmode="layer"
     inkscape:label="TEDx_logo_RGB"
     transform="matrix(1.25,0,0,-1.25,-0.00250005,39.998757)"><g
       id="g12" /><g
       id="g14"
       style="fill:#686767;fill-opacity:1"
       transform="matrix(0.27217056,0,0,0.27217056,1.1659828,1.1638036)"
       inkscape:export-filename="/Users/lapsusone/Dropbox/Mon Site/Croisillon/public_html/Images/Icons/Inactive_menu/PNG/ted_inactive_menu.png"
       inkscape:export-xdpi="90"
       inkscape:export-ydpi="90"><g
         id="g16"
         transform="translate(0,-0.982994)"
         style="fill:#686767;fill-opacity:1"><g
           id="g18"
           style="fill:#686767;fill-opacity:1" /><g
           id="g24"
           style="fill:#686767;fill-opacity:1"><g
             clip-path="url(#clipPath20)"
             id="g26"
             style="fill:#686767;fill-opacity:1"><g
               id="g28"
               style="fill:#686767;fill-opacity:1"><path
                 d="m 31.254,81.277 -29.652,0 0,27.121 91.878,0 0,-27.121 -29.644,0 0,-78.695 -32.582,0 0,78.695 z"
                 style="fill:#686767;fill-opacity:1;fill-rule:nonzero;stroke:none"
                 id="path30"
                 inkscape:connector-curvature="0" /><path
                 d="m 98.543,108.398 89.191,0 0,-27.121 -56.589,0 0,-13.183 56.589,0 0,-25.203 -56.589,0 0,-13.188 56.605,0 0,-27.121 -89.207,0 0,105.816 z"
                 style="fill:#686767;fill-opacity:1;fill-rule:nonzero;stroke:none"
                 id="path32"
                 inkscape:connector-curvature="0" /><path
                 d="m 225.824,29.703 12.75,0 c 20.309,0 23.278,16.457 23.278,26.395 0,6.66 -2.086,25.179 -25.653,25.179 l -10.375,0 0,-51.574 z m -32.601,78.695 53.5,0 c 35.265,0 47.73,-26.082 47.73,-52.75 0,-32.468 -17.191,-53.066 -54.098,-53.066 l -47.132,0 0,105.816 z"
                 style="fill:#686767;fill-opacity:1;fill-rule:nonzero;stroke:none"
                 id="path34"
                 inkscape:connector-curvature="0" /></g></g></g></g></g></g></svg>