<?xml version="1.0" encoding="UTF-8" standalone="no"?>
<!-- Generator: Adobe Illustrator 16.0.4, SVG Export Plug-In . SVG Version: 6.00 Build 0)  -->

<svg
   xmlns:dc="http://purl.org/dc/elements/1.1/"
   xmlns:cc="http://creativecommons.org/ns#"
   xmlns:rdf="http://www.w3.org/1999/02/22-rdf-syntax-ns#"
   xmlns:svg="http://www.w3.org/2000/svg"
   xmlns="http://www.w3.org/2000/svg"
   xmlns:sodipodi="http://sodipodi.sourceforge.net/DTD/sodipodi-0.dtd"
   xmlns:inkscape="http://www.inkscape.org/namespaces/inkscape"
   version="1.1"
   id="Layer_1"
   x="0px"
   y="0px"
   width="39.49419"
   height="40"
   viewBox="0 0 39.49419 39.999999"
   enable-background="new 0 0 56.693 56.693"
   xml:space="preserve"
   inkscape:version="0.48.2 r9819"
   sodipodi:docname="07-skype.svg"
   inkscape:export-filename="/Users/lapsusone/Dropbox/Mon Site/Croisillon/public_html/Images/Icons/Inactive_menu/PNG/skype_inactive_menu.png"
   inkscape:export-xdpi="180"
   inkscape:export-ydpi="180"><metadata
   id="metadata9"><rdf:RDF><cc:Work
       rdf:about=""><dc:format>image/svg+xml</dc:format><dc:type
         rdf:resource="http://purl.org/dc/dcmitype/StillImage" /><dc:title></dc:title></cc:Work></rdf:RDF></metadata><defs
   id="defs7" /><sodipodi:namedview
   pagecolor="#ffffff"
   bordercolor="#666666"
   borderopacity="1"
   objecttolerance="10"
   gridtolerance="10"
   guidetolerance="10"
   inkscape:pageopacity="0"
   inkscape:pageshadow="2"
   inkscape:window-width="970"
   inkscape:window-height="791"
   id="namedview5"
   showgrid="false"
   inkscape:zoom="11.501174"
   inkscape:cx="-4.2189653"
   inkscape:cy="26.9105"
   inkscape:window-x="59"
   inkscape:window-y="8"
   inkscape:window-maximized="0"
   inkscape:current-layer="Layer_1"
   fit-margin-top="2"
   fit-margin-right="2"
   fit-margin-left="2"
   fit-margin-bottom="2" />
<path
   d="m 36.476064,23.822845 c 0.255796,-1.173481 0.389474,-2.386704 0.389474,-3.633889 0,-9.348829 -7.578491,-16.928042 -16.928765,-16.928042 -0.986331,0 -1.953152,0.08599 -2.896128,0.247124 C 15.528994,2.554224 13.737701,2 11.81851,2 6.3954958,2 2,6.396218 2,11.819955 c 0,1.811525 0.4935268,3.507436 1.3490697,4.964894 -0.2254471,1.099055 -0.3425062,2.238574 -0.3425062,3.404107 0,9.350996 7.5784905,16.93021 16.9294875,16.93021 1.060035,0 2.094057,-0.09755 3.099175,-0.283254 1.383031,0.742096 2.962606,1.164087 4.641898,1.164087 5.422291,0 9.817065,-4.395496 9.817065,-9.817788 7.22e-4,-1.566568 -0.366352,-3.044981 -1.018125,-4.359366 z m -7.856687,4.456916 c -0.781839,1.107725 -1.939423,1.986391 -3.439513,2.609261 -1.484916,0.617089 -3.264648,0.930692 -5.289336,0.930692 -2.431505,0 -4.471368,-0.428494 -6.061781,-1.272476 -1.138075,-0.613476 -2.07527,-1.444451 -2.78774,-2.474137 -0.718252,-1.035467 -1.082435,-2.064431 -1.082435,-3.057988 0,-0.619257 0.237008,-1.157584 0.705244,-1.597639 0.463901,-0.436443 1.057867,-0.657554 1.767448,-0.657554 0.581682,0 1.08388,0.173421 1.491419,0.517372 0.389474,0.331667 0.722587,0.820859 0.992112,1.451677 0.300596,0.688625 0.626483,1.268862 0.972602,1.72337 0.333112,0.440778 0.81002,0.810019 1.419883,1.099054 0.614199,0.289757 1.442283,0.437888 2.45824,0.437888 1.400374,0 2.548564,-0.298429 3.411333,-0.888059 0.843981,-0.57518 1.25152,-1.266695 1.25152,-2.112122 0,-0.668393 -0.213163,-1.192268 -0.651773,-1.60631 -0.463178,-0.431385 -1.069429,-0.764497 -1.807912,-0.996448 -0.768833,-0.239176 -1.813693,-0.499307 -3.104956,-0.770277 -1.758776,-0.375745 -3.250196,-0.822304 -4.437406,-1.325947 -1.215391,-0.517372 -2.193774,-1.234178 -2.909135,-2.128741 -0.726199,-0.911182 -1.095441,-2.049979 -1.095441,-3.392545 0,-1.278979 0.386584,-2.43295 1.149635,-3.425785 0.756549,-0.987776 1.862829,-1.756608 3.286325,-2.281206 1.403987,-0.51954 3.07533,-0.783284 4.967785,-0.783284 1.511652,0 2.839766,0.176311 3.950382,0.51954 1.116397,0.346841 2.056483,0.816523 2.795689,1.39387 0.743542,0.582405 1.298488,1.203107 1.646775,1.850545 0.349732,0.651773 0.527489,1.302101 0.527489,1.930029 0,0.605528 -0.232673,1.155416 -0.694406,1.635937 -0.464624,0.481243 -1.048474,0.725477 -1.738544,0.725477 -0.626483,0 -1.117842,-0.153911 -1.45818,-0.453062 -0.316494,-0.282532 -0.645271,-0.718974 -1.010177,-1.346902 -0.421991,-0.800626 -0.93286,-1.433612 -1.518877,-1.879448 -0.570121,-0.434275 -1.521046,-0.651774 -2.828205,-0.651774 -1.212501,0 -2.200277,0.242789 -2.93298,0.724755 -0.705968,0.461733 -1.049919,0.992834 -1.049919,1.622207 0,0.386584 0.111278,0.707413 0.340338,0.984886 0.239899,0.295538 0.580238,0.551334 1.008009,0.767387 0.444391,0.224725 0.904679,0.401759 1.363521,0.527489 0.469682,0.131511 1.258747,0.324441 2.341182,0.574456 1.370024,0.294816 2.630938,0.623593 3.743,0.980551 1.12868,0.361293 2.101282,0.804239 2.897573,1.322334 0.81002,0.527488 1.452399,1.204552 1.908352,2.015294 0.457397,0.812911 0.688625,1.815861 0.688625,2.982116 0,1.391703 -0.399591,2.664901 -1.185765,3.775517 z"
   id="path3"
   style="fill:#f8ff00;fill-opacity:1"
   inkscape:connector-curvature="0"
   inkscape:export-filename="/Users/lapsusone/Dropbox/Mon Site/Croisillon/public_html/Images/Icons/Inactive_header/PNG/skype_inactive_header.png"
   inkscape:export-xdpi="180"
   inkscape:export-ydpi="180" />
</svg>