<?xml version="1.0" encoding="UTF-8" standalone="no"?>
<!-- Created with Inkscape (http://www.inkscape.org/) -->

<svg
   xmlns:dc="http://purl.org/dc/elements/1.1/"
   xmlns:cc="http://creativecommons.org/ns#"
   xmlns:rdf="http://www.w3.org/1999/02/22-rdf-syntax-ns#"
   xmlns:svg="http://www.w3.org/2000/svg"
   xmlns="http://www.w3.org/2000/svg"
   xmlns:sodipodi="http://sodipodi.sourceforge.net/DTD/sodipodi-0.dtd"
   xmlns:inkscape="http://www.inkscape.org/namespaces/inkscape"
   id="svg2"
   version="1.1"
   inkscape:version="0.48.2 r9819"
   width="356.86374"
   height="406.50064"
   xml:space="preserve"
   sodipodi:docname="v_lrg_green.svg"
   inkscape:export-filename="/Users/lapsusone/Dropbox/Mon Site/Croisillon/public_html/Images/Icons/Inactive_menu/PNG/vine_inactive_menu.png"
   inkscape:export-xdpi="180"
   inkscape:export-ydpi="180"><metadata
     id="metadata8"><rdf:RDF><cc:Work
         rdf:about=""><dc:format>image/svg+xml</dc:format><dc:type
           rdf:resource="http://purl.org/dc/dcmitype/StillImage" /><dc:title></dc:title></cc:Work></rdf:RDF></metadata><defs
     id="defs6"><clipPath
       clipPathUnits="userSpaceOnUse"
       id="clipPath16"><path
         d="M 0,792 612,792 612,0 0,0 0,792 z"
         id="path18"
         inkscape:connector-curvature="0" /></clipPath></defs><sodipodi:namedview
     pagecolor="#ffffff"
     bordercolor="#666666"
     borderopacity="1"
     objecttolerance="10"
     gridtolerance="10"
     guidetolerance="10"
     inkscape:pageopacity="0"
     inkscape:pageshadow="2"
     inkscape:window-width="988"
     inkscape:window-height="706"
     id="namedview4"
     showgrid="false"
     inkscape:zoom="13.555556"
     inkscape:cx="17.780228"
     inkscape:cy="387.33019"
     inkscape:window-x="55"
     inkscape:window-y="0"
     inkscape:window-maximized="0"
     inkscape:current-layer="g10"
     fit-margin-top="2"
     fit-margin-left="2"
     fit-margin-right="2"
     fit-margin-bottom="2" /><g
     id="g10"
     inkscape:groupmode="layer"
     inkscape:label="v_lrg_green"
     transform="matrix(1.25,0,0,-1.25,-202.70525,698.25112)"><g
       id="g12"
       style="fill:#f8ff00;fill-opacity:1"
       transform="matrix(0.08944085,0,0,0.08944085,149.117,507.8459)"
       inkscape:export-filename="/Users/lapsusone/Dropbox/Mon Site/Croisillon/public_html/Images/Icons/Inactive_header/PNG/vine_inactive_header.png"
       inkscape:export-xdpi="180"
       inkscape:export-ydpi="180"><g
         id="g14"
         clip-path="url(#clipPath16)"
         style="fill:#f8ff00;fill-opacity:1"><g
           id="g20"
           transform="translate(446.0552,396.9229)"
           style="fill:#f8ff00;fill-opacity:1"><path
             d="m 0,0 c -8.295,-1.912 -16.318,-2.756 -23.541,-2.756 -40.627,0 -71.906,28.374 -71.906,77.71 0,24.182 9.349,36.757 22.57,36.757 12.578,0 20.963,-11.285 20.963,-34.179 0,-13.017 -3.486,-27.282 -6.061,-35.722 0,0 12.52,-21.84 46.754,-15.138 C -3.951,42.811 0,63.711 0,82.045 c 0,49.336 -25.152,78.033 -71.264,78.033 -47.396,0 -75.128,-36.437 -75.128,-84.483 0,-47.595 22.249,-88.45 58.939,-107.066 -15.428,-30.861 -35.059,-58.046 -55.532,-78.528 -37.145,44.903 -70.725,104.808 -84.505,221.71 l -54.801,0 c 25.319,-194.696 100.772,-256.69 120.722,-268.595 11.286,-6.771 21.002,-6.449 31.321,-0.642 16.199,9.211 64.838,57.84 91.797,114.803 11.316,0.032 24.912,1.33 38.451,4.39 L 0,0 z"
             style="fill:#f8ff00;fill-opacity:1;fill-rule:nonzero;stroke:none"
             id="path22"
             inkscape:connector-curvature="0" /></g></g></g></g></svg>